<svg xmlns="http://www.w3.org/2000/svg" viewBox="0 0 80 50" role="img" aria-label="Apple Pay">
  <rect width="80" height="50" rx="6" fill="#000"/>
  <!-- Apple logo path (simplified) -->
  <path d="M28.5 17.5c1.2-1.5 2-3.5 1.8-5.5-1.8.1-3.9 1.2-5.2 2.7-1.1 1.3-2.1 3.4-1.8 5.3 2 .2 4-1 5.2-2.5z" fill="#fff"/>
  <path d="M30.2 20.2c-2.8-.2-5.2 1.6-6.6 1.6-1.3 0-3.4-1.5-5.6-1.5-2.9.1-5.5 1.7-7 4.3-3 5.2-.8 12.9 2.1 17.2 1.4 2.1 3.1 4.4 5.3 4.3 2.1-.1 2.9-1.4 5.5-1.4 2.6 0 3.3 1.4 5.6 1.3 2.3 0 3.8-2.1 5.2-4.2 1.6-2.4 2.3-4.7 2.3-4.8-.1 0-4.4-1.7-4.5-6.9 0-4.3 3.5-6.4 3.7-6.5-2-3-5.2-3.3-6-3.4z" fill="#fff"/>
  <text x="56" y="32" dominant-baseline="middle" text-anchor="middle"
    font-family="-apple-system, BlinkMacSystemFont, Arial, sans-serif"
    font-size="13" font-weight="500" fill="#fff">Pay</text>
</svg>
